General                          : ChattChitto RG - Movies

Complete name                    : Fear And Loathing In Las Vegas 1998 BDRip.mp4
Format                           : MPEG-4
Format profile                   : Base Media
Codec ID                         : isom
File size                        : 2.20 GiB
Duration                         : 1h 58mn
Overall bit rate                 : 2 658 Kbps
Encoded date                     : UTC 2010-05-07 23:14:41

Video
==========
ID                               : 1
Format                           : AVC
Format/Info                      : Advanced Video Codec
Format profile                   : High@L3.1
Format settings, CABAC           : Yes
Format settings, ReFrames        : 3 frames
Codec ID                         : avc1
Codec ID/Info                    : Advanced Video Coding
Duration                         : 1h 58mn
Bit rate mode                    : Variable
Bit rate                         : 2 300 Kbps
Maximum bit rate                 : 10.6 Mbps
Width                            : 1 280 pixels
Height                           : 544 pixels
Display aspect ratio             : 2.35:1
Frame rate mode                  : Constant
Frame rate                       : 23.976 fps
Resolution                       : 8 bits
Colorimetry                      : 4:2:0
Scan type                        : Progressive
Bits/(Pixel*Frame)               : 0.138
Stream size                      : 1.90 GiB (87%)
Writing library                  : x264 core 76 r1271 496d79d
Encoded date                     : UTC 2010-05-07 21:53:17

Audio
==========
ID                               : 2
Format                           : AAC
Format/Info                      : Advanced Audio Codec
Format version                   : Version 4
Format profile                   : LC
Format settings, SBR             : No
Codec ID                         : 40
Duration                         : 1h 58mn
Bit rate mode                    : Variable
Bit rate                         : 352.8 Kbps
Maximum bit rate                 : 465 Kbps
Channel(s)                       : 6 channels
Channel positions                : Front: L C R, Side: L R, LFE
Sampling rate                    : 48.0 KHz
Stream size                      : 301 MiB (13%)
Encoded date                     : UTC 2010-05-07 23:16:42

Subtitles                        : English [SDH] | French | Finnish | Spanish



----------------------------------------------------
IMDB Link: http://www.imdb.com/title/tt0120669/
----------------------------------------------------



Screen Shots:
============== 
http://bayimg.com/fAmkMaAch 
http://bayimg.com/FAMkLaaCh 
http://bayimg.com/faMkKAacH 
http://bayimg.com/FAMKiaaCh 
http://bayimg.com/FAmkHaach



Plot:
======
Journalist Raoul Duke and his lawyer Dr. Gonzo drive from LA to Las Vegas on a drugs binge. They nominally cover news stories, including a convention on drug abuse, but also sink deeper into a frightening psychedelic otherworld. As Vietnam, Altamont and the Tate killings impinge from the world of TV news, Duke and Gonzo see casinos, reptiles and the American dream.




Release Info:
==============
original name .... : Fear And Loathing In Las Vegas 1998 BDRip.mp4
ripper.............: Recalled2Life (R2L)
encoder............: Recalled2Life (R2L)
video codec........: H264/.MP4
video bitrate......: 2300 Kbps
audio codec........: AAC-LC
aspect ratio.......: 2.35:1
resolution.........: 1280 x 544
genre..............: Drama | Fantasy
runtime............: 1h 58mn
language...........: English
MPAA rating........: R
subtitles..........: English [SDH] | French | Finnish | Spanish
sample.............: Yes [9.56 MB]
2ch Audio..........: 2ch Audio for XBox Viewers
Compatibility .....: XBox 360 | PS3 | WD Live



Source:
========
Fear And Loathing In Las Vegas Blu-Ray 1080p VC-1/DTS-HD [31.5 GB]


Notes:
=======
ChattChitto RG Encourages Burning this Film with ConvertXtoDVD.
XBox 360 | PS3 | WD Live - Compatible
Enhanced and Filtered for your viewing pleasure ;)